<?xml version="1.0" encoding="UTF-8" standalone="no"?>
<svg
   xmlns:dc="http://purl.org/dc/elements/1.1/"
   xmlns:cc="http://creativecommons.org/ns#"
   xmlns:rdf="http://www.w3.org/1999/02/22-rdf-syntax-ns#"
   xmlns:svg="http://www.w3.org/2000/svg"
   xmlns="http://www.w3.org/2000/svg"
   xmlns:sodipodi="http://sodipodi.sourceforge.net/DTD/sodipodi-0.dtd"
   xmlns:inkscape="http://www.inkscape.org/namespaces/inkscape"
   width="20"
   height="32"
   version="1.1"
   id="svg37"
   inkscape:version="1.0.1 (c497b03c, 2020-09-10)"
   sodipodi:docname="colIcon6.svg">
  <defs
     id="defs639" />
  <g
     id="g634"
     transform="matrix(0.04853497,0,0,0.06249996,-2.4249527,1.9892446e-5)">
    <g
       id="g568">
      <path
         d="m 94.707,118.566 c -1.748,0 -3.503,-0.607 -4.925,-1.846 C 78.034,106.482 71.297,91.69 71.297,76.136 c 0,-15.554 6.738,-30.346 18.485,-40.584 3.123,-2.721 7.86,-2.396 10.582,0.727 2.721,3.123 2.396,7.86 -0.727,10.582 -8.478,7.389 -13.341,18.059 -13.341,29.276 0,11.217 4.862,21.887 13.341,29.275 3.123,2.722 3.448,7.459 0.727,10.582 -1.483,1.701 -3.565,2.572 -5.657,2.572 z"
         fill="#0accab"
         id="path566" />
    </g>
    <g
       id="g572">
      <circle
         cx="132.869"
         cy="136.425"
         fill="#ff7591"
         r="61.811001"
         id="circle570" />
    </g>
    <g
       id="g576">
      <path
         d="m 132.869,198.236 c 34.137,0 61.811,-27.674 61.811,-61.811 0,-34.137 -27.674,-61.811 -61.811,-61.811 -0.073,0 -0.146,0.005 -0.219,0.006 -13.147,14.842 -20.385,33.836 -20.385,53.715 v 4.15 c -10.745,4.428 -20.497,11.145 -28.564,19.857 -2.679,2.893 -5.121,5.957 -7.326,9.16 9.619,21.637 31.287,36.734 56.494,36.734 z"
         fill="#fd5c70"
         id="path574" />
    </g>
    <g
       id="g580">
      <path
         d="M 256,244.261 H 79.567 l 155.829,247.135 h 41.208 L 432.433,244.261 Z"
         fill="#2fcffc"
         id="path578" />
    </g>
    <g
       id="g584">
      <path
         d="M 146.78,244.261 H 79.567 l 155.829,247.135 h 41.208 l 13.003,-20.622 z"
         fill="#0fbfe8"
         id="path582" />
    </g>
    <g
       id="g588">
      <path
         d="M 291.687,0.075 265.37,2.1 c -40.658,3.128 -72.053,37.031 -72.053,77.809 v 23.205 h 47.328 c 43.1,0 78.039,-34.939 78.039,-78.039 -0.001,-14.606 -12.435,-26.12 -26.997,-25 z"
         fill="#fffddb"
         id="path586" />
    </g>
    <g
       id="g592">
      <path
         d="m 314.837,68.693 -125.366,9.644 c -26.126,2.01 -46.3,23.795 -46.3,49.999 v 45.177 H 368.83 v -54.82 c 0,-29.213 -24.868,-52.241 -53.993,-50 z"
         fill="#fff3ac"
         id="path590" />
    </g>
    <g
       id="g596">
      <path
         d="m 288.808,70.695 -99.337,7.641 c -26.126,2.01 -46.3,23.795 -46.3,49.999 v 45.176 h 100.293 v -52.915 c -0.001,-25.88 19.685,-47.439 45.344,-49.901 z"
         fill="#f9e99b"
         id="path594" />
    </g>
    <g
       id="g600">
      <path
         d="m 93.024,248.731 v -41.319 c 0,-26.203 20.174,-47.989 46.3,-49.999 l 225.659,-17.358 c 29.125,-2.24 53.993,20.788 53.993,49.999 v 58.678 H 93.024 Z"
         fill="#fffddb"
         id="path598" />
    </g>
    <g
       id="g604">
      <path
         d="m 338.933,233.96 41.719,-128.366 h 44.298 c 11.379,0 20.604,-9.225 20.604,-20.604 0,-11.379 -9.225,-20.604 -20.604,-20.604 h -52.478 c -17.851,0 -33.672,11.494 -39.189,28.471 L 287.424,233.96 Z"
         fill="#899bb0"
         id="path602" />
    </g>
    <g
       id="g608">
      <path
         d="m 327.204,194.578 c -13.043,-3.554 -20.742,-16.995 -17.219,-30.04 l -22.562,69.421 h 51.509 l 17.956,-55.249 c -4.086,12.243 -17.076,19.304 -29.684,15.868 z"
         fill="#6c8199"
         id="path606" />
    </g>
    <g
       id="g612">
      <path
         d="m 236.355,149.949 -97.031,7.464 c -26.126,2.01 -46.3,23.795 -46.3,49.999 v 41.319 h 100.293 v -49.154 c 0,-25.1 18.516,-46.134 43.038,-49.628 z"
         fill="#fff3ac"
         id="path610" />
    </g>
    <g
       id="g616">
      <path
         d="m 49.964,244.261 c 0,-11.379 9.225,-20.604 20.604,-20.604 h 370.865 c 11.379,0 20.604,9.225 20.604,20.604 0,11.379 -9.225,20.604 -20.604,20.604 H 70.567 c -11.379,0 -20.603,-9.224 -20.603,-20.604 z"
         fill="#84dfff"
         id="path614" />
    </g>
    <g
       id="g620">
      <path
         d="m 163.284,491.396 c 0,-11.379 9.225,-20.604 20.604,-20.604 h 144.225 c 11.379,0 20.604,9.225 20.604,20.604 0,11.379 -9.225,20.604 -20.604,20.604 H 183.887 c -11.379,0 -20.603,-9.225 -20.603,-20.604 z"
         fill="#84dfff"
         id="path618" />
    </g>
    <g
       id="g624">
      <path
         d="m 269.003,491.396 c 0,-11.379 9.225,-20.604 20.604,-20.604 h -105.72 c -11.379,0 -20.604,9.225 -20.604,20.604 0,11.379 9.225,20.604 20.604,20.604 h 105.72 c -11.379,0 -20.604,-9.225 -20.604,-20.604 z"
         fill="#2fcffc"
         id="path622" />
    </g>
    <g
       id="g628">
      <path
         d="m 139.155,244.261 c 0,-11.379 9.225,-20.604 20.604,-20.604 H 70.567 c -11.379,0 -20.604,9.225 -20.604,20.604 0,11.379 9.225,20.604 20.604,20.604 h 89.191 c -11.379,0 -20.603,-9.225 -20.603,-20.604 z"
         fill="#2fcffc"
         id="path626" />
    </g>
    <g
       id="g632">
      <path
         d="m 193.288,213.356 v 113.32 c 0,11.379 9.225,20.604 20.604,20.604 11.379,0 20.604,-9.225 20.604,-20.604 v -41.207 c 0,-11.379 9.225,-20.604 20.604,-20.604 11.379,0 20.604,9.225 20.604,20.604 0,11.379 9.225,20.604 20.604,20.604 11.379,0 20.604,-9.225 20.604,-20.604 v -61.811 h -26.138 l 3.348,-10.302 z"
         fill="#fffddb"
         id="path630" />
    </g>
  </g>
</svg>
