<?xml version="1.0" encoding="UTF-8" standalone="no"?>
<svg
   xmlns:dc="http://purl.org/dc/elements/1.1/"
   xmlns:cc="http://creativecommons.org/ns#"
   xmlns:rdf="http://www.w3.org/1999/02/22-rdf-syntax-ns#"
   xmlns:svg="http://www.w3.org/2000/svg"
   xmlns="http://www.w3.org/2000/svg"
   xmlns:sodipodi="http://sodipodi.sourceforge.net/DTD/sodipodi-0.dtd"
   xmlns:inkscape="http://www.inkscape.org/namespaces/inkscape"
   width="20"
   height="32"
   version="1.1"
   id="svg37"
   inkscape:version="1.0.1 (c497b03c, 2020-09-10)"
   sodipodi:docname="colIcon4.svg">
  <defs
     id="defs479" />
  <g
     id="g474"
     transform="matrix(0.06066875,0,0,0.0625,-5.5312306,0)">
    <g
       id="g434">
      <circle
         cx="256"
         cy="133.224"
         fill="#e7886e"
         r="133.224"
         id="circle432" />
    </g>
    <g
       id="g438">
      <circle
         cx="309.47601"
         cy="100.331"
         fill="#dc6646"
         r="20.604"
         id="circle436" />
    </g>
    <g
       id="g442">
      <circle
         cx="256"
         cy="135.91499"
         fill="#dc6646"
         r="15.453"
         id="circle440" />
    </g>
    <g
       id="g446">
      <path
         d="M 180.882,133.224 C 180.882,69.626 225.449,16.445 285.053,3.186 275.7,1.106 265.98,0 256,0 182.422,0 122.776,59.647 122.776,133.224 c 0,73.577 59.646,133.224 133.224,133.224 9.98,0 19.7,-1.106 29.053,-3.186 -59.604,-13.259 -104.171,-66.44 -104.171,-130.038 z"
         fill="#dc6646"
         id="path444" />
    </g>
    <g
       id="g450">
      <path
         d="m 256,512 c -24.469,0 -46.051,-16.023 -53.13,-39.445 L 122.077,205.27 H 389.924 L 309.13,472.555 C 302.051,495.977 280.468,512 256,512 Z"
         fill="#ffbe74"
         id="path448" />
    </g>
    <g
       id="g454">
      <path
         d="m 209.298,205.271 h -87.222 l 80.793,267.285 C 209.95,495.977 231.531,512 256,512 c 15.8,0 30.39,-6.688 40.656,-17.729 z"
         fill="#f4a960"
         id="path452" />
    </g>
    <g
       id="g458">
      <path
         d="m 91.171,205.271 c 0,-11.379 9.225,-20.604 20.604,-20.604 h 288.451 c 11.379,0 20.604,9.225 20.604,20.604 0,11.379 -9.225,20.604 -20.604,20.604 H 111.775 C 100.396,225.874 91.171,216.65 91.171,205.271 Z"
         fill="#ffd3a3"
         id="path456" />
    </g>
    <g
       id="g462">
      <path
         d="m 204.491,174.365 v 113.32 c 0,11.379 9.225,20.604 20.604,20.604 11.379,0 20.604,-9.225 20.604,-20.604 v -41.207 c 0,-11.379 9.225,-20.604 20.604,-20.604 11.379,0 20.604,9.225 20.604,20.604 0,11.379 9.225,20.604 20.604,20.604 11.379,0 20.604,-9.225 20.604,-20.604 v -72.113 z"
         fill="#e7886e"
         id="path460" />
    </g>
    <g
       id="g466">
      <path
         d="m 170.974,205.271 c 0,-11.379 9.225,-20.604 20.604,-20.604 h -79.803 c -11.379,0 -20.604,9.224 -20.604,20.603 0,11.379 9.225,20.604 20.604,20.604 h 79.803 c -11.379,0 -20.604,-9.224 -20.604,-20.603 z"
         fill="#ffbe74"
         id="path464" />
    </g>
    <g
       fill="#ffd3a3"
       id="g472">
      <path
         d="m 272.23,369.639 c -2.93,-2.929 -7.678,-2.929 -10.607,0 l -5.623,5.623 -5.623,-5.623 c -2.93,-2.929 -7.678,-2.929 -10.607,0 -2.929,2.929 -2.929,7.678 0,10.606 l 5.624,5.624 -5.624,5.624 c -2.929,2.929 -2.929,7.678 0,10.606 1.465,1.464 3.385,2.197 5.304,2.197 1.919,0 3.839,-0.732 5.304,-2.197 l 5.623,-5.623 5.623,5.623 c 1.465,1.464 3.385,2.197 5.304,2.197 1.919,0 3.839,-0.732 5.304,-2.197 2.929,-2.929 2.929,-7.678 0,-10.606 l -5.624,-5.624 5.624,-5.624 c 2.927,-2.928 2.927,-7.677 -0.002,-10.606 z"
         id="path468" />
      <path
         d="m 316.838,335.638 5.624,-5.624 c 2.929,-2.929 2.929,-7.678 0,-10.606 -2.93,-2.929 -7.678,-2.929 -10.607,0 l -5.623,5.623 -5.623,-5.623 c -2.93,-2.929 -7.678,-2.929 -10.607,0 -2.929,2.929 -2.929,7.678 0,10.606 l 5.624,5.624 -5.624,5.624 c -2.929,2.929 -2.929,7.678 0,10.606 1.465,1.464 3.385,2.197 5.304,2.197 1.919,0 3.839,-0.732 5.304,-2.197 l 5.623,-5.623 5.623,5.623 c 1.465,1.464 3.385,2.197 5.304,2.197 1.919,0 3.839,-0.732 5.304,-2.197 2.929,-2.929 2.929,-7.678 0,-10.606 z"
         id="path470" />
    </g>
  </g>
</svg>
