<?xml version="1.0" encoding="UTF-8" standalone="no"?>
<svg
   xmlns:dc="http://purl.org/dc/elements/1.1/"
   xmlns:cc="http://creativecommons.org/ns#"
   xmlns:rdf="http://www.w3.org/1999/02/22-rdf-syntax-ns#"
   xmlns:svg="http://www.w3.org/2000/svg"
   xmlns="http://www.w3.org/2000/svg"
   xmlns:sodipodi="http://sodipodi.sourceforge.net/DTD/sodipodi-0.dtd"
   xmlns:inkscape="http://www.inkscape.org/namespaces/inkscape"
   width="20.000002"
   height="32"
   version="1.1"
   id="svg37"
   inkscape:version="1.0.1 (c497b03c, 2020-09-10)"
   sodipodi:docname="colIcon3.svg">
  <defs
     id="defs377" />
  <g
     id="g372"
     transform="matrix(0.06056477,0,0,0.0625,-5.5046108,3.9009974e-7)">
    <g
       id="g328">
      <path
         d="M 285.376,0.062 263.713,1.728 C 230.245,4.302 204.402,32.21 204.402,65.776 v 19.101 h 38.958 c 35.477,0 64.238,-28.76 64.238,-64.238 0,-12.021 -10.235,-21.499 -22.222,-20.577 z"
         fill="#ff7591"
         id="path326" />
    </g>
    <g
       id="g332">
      <path
         d="m 304.432,56.544 -103.195,7.938 c -21.506,1.654 -38.112,19.587 -38.112,41.157 v 37.187 H 348.876 V 97.701 c 0,-24.045 -20.47,-43.001 -44.444,-41.157 z"
         fill="#fd5c70"
         id="path330" />
    </g>
    <g
       id="g336">
      <path
         d="m 283.006,58.192 -81.769,6.29 c -21.506,1.654 -38.112,19.587 -38.112,41.157 v 37.187 h 82.556 V 99.269 C 245.68,77.965 261.885,60.22 283.006,58.192 Z"
         fill="#f24c68"
         id="path334" />
    </g>
    <g
       id="g340">
      <path
         d="m 121.846,204.743 v -34.012 c 0,-21.569 16.606,-39.502 38.112,-41.157 L 345.71,115.285 c 23.974,-1.844 44.444,17.112 44.444,41.157 v 48.3 H 121.846 Z"
         fill="#ff7591"
         id="path338" />
    </g>
    <g
       id="g344">
      <path
         d="m 239.829,123.431 -79.871,6.144 c -21.506,1.654 -38.112,19.587 -38.112,41.157 v 34.012 h 82.556 v -40.461 c 0,-20.662 15.242,-37.976 35.427,-40.852 z"
         fill="#fd5c70"
         id="path342" />
    </g>
    <g
       id="g348">
      <path
         d="m 256,512 c -24.511,0 -46.13,-16.05 -53.222,-39.512 L 121.846,204.744 H 390.154 L 309.222,472.488 C 302.13,495.95 280.511,512 256,512 Z"
         fill="#ffbe74"
         id="path346" />
    </g>
    <g
       id="g352">
      <path
         d="m 209.218,204.743 h -87.372 l 80.932,267.744 C 209.87,495.95 231.489,512 256,512 c 15.828,0 30.443,-6.7 40.726,-17.759 z"
         fill="#f4a960"
         id="path350" />
    </g>
    <g
       id="g356">
      <path
         d="m 90.888,204.743 c 0,-11.399 9.24,-20.639 20.639,-20.639 h 288.947 c 11.399,0 20.639,9.24 20.639,20.639 0,11.399 -9.24,20.639 -20.639,20.639 H 111.527 c -11.399,0 -20.639,-9.24 -20.639,-20.639 z"
         fill="#ffd3a3"
         id="path354" />
    </g>
    <g
       id="g360">
      <path
         d="M 204.402,173.785 V 287.3 c 0,11.399 9.24,20.639 20.639,20.639 11.399,0 20.639,-9.24 20.639,-20.639 v -41.278 c 0,-11.399 9.24,-20.639 20.639,-20.639 11.399,0 20.639,9.24 20.639,20.639 0,11.399 9.24,20.639 20.639,20.639 11.399,0 20.639,-9.24 20.639,-20.639 v -72.237 z"
         fill="#ff7591"
         id="path358" />
    </g>
    <g
       id="g364">
      <path
         d="m 170.828,204.743 c 0,-11.399 9.24,-20.639 20.639,-20.639 h -79.94 c -11.399,0 -20.639,9.24 -20.639,20.639 0,11.399 9.24,20.639 20.639,20.639 h 79.94 c -11.399,0 -20.639,-9.24 -20.639,-20.639 z"
         fill="#ffbe74"
         id="path362" />
    </g>
    <g
       fill="#ffd3a3"
       id="g370">
      <path
         d="m 272.249,369.404 c -2.93,-2.929 -7.678,-2.929 -10.607,0 l -5.642,5.641 -5.642,-5.642 c -2.929,-2.929 -7.678,-2.929 -10.606,0 -2.929,2.929 -2.929,7.678 0,10.606 l 5.642,5.642 -5.642,5.642 c -2.929,2.929 -2.929,7.678 0,10.606 1.464,1.464 3.384,2.197 5.303,2.197 1.919,0 3.839,-0.732 5.303,-2.197 l 5.642,-5.642 5.642,5.642 c 1.465,1.464 3.385,2.197 5.304,2.197 1.919,0 3.839,-0.732 5.304,-2.197 2.929,-2.929 2.929,-7.678 0,-10.606 l -5.642,-5.642 5.642,-5.642 c 2.928,-2.928 2.928,-7.677 -10e-4,-10.605 z"
         id="path366" />
      <path
         d="m 316.924,335.334 5.642,-5.642 c 2.929,-2.929 2.929,-7.678 0,-10.606 -2.93,-2.929 -7.678,-2.929 -10.607,0 l -5.642,5.642 -5.642,-5.642 c -2.93,-2.929 -7.678,-2.929 -10.607,0 -2.929,2.929 -2.929,7.678 0,10.606 l 5.642,5.642 -5.642,5.642 c -2.929,2.929 -2.929,7.678 0,10.606 1.465,1.464 3.385,2.197 5.304,2.197 1.919,0 3.839,-0.732 5.304,-2.197 l 5.642,-5.642 5.642,5.642 c 1.465,1.465 3.384,2.197 5.304,2.197 1.919,0 3.839,-0.732 5.304,-2.197 2.929,-2.929 2.929,-7.678 0,-10.606 z"
         id="path368" />
    </g>
  </g>
</svg>
