<?xml version="1.0" encoding="UTF-8" standalone="no"?>
<svg
   xmlns:dc="http://purl.org/dc/elements/1.1/"
   xmlns:cc="http://creativecommons.org/ns#"
   xmlns:rdf="http://www.w3.org/1999/02/22-rdf-syntax-ns#"
   xmlns:svg="http://www.w3.org/2000/svg"
   xmlns="http://www.w3.org/2000/svg"
   xmlns:sodipodi="http://sodipodi.sourceforge.net/DTD/sodipodi-0.dtd"
   xmlns:inkscape="http://www.inkscape.org/namespaces/inkscape"
   width="20.000002"
   height="32"
   version="1.1"
   id="svg37"
   inkscape:version="1.0.1 (c497b03c, 2020-09-10)"
   sodipodi:docname="colIcon1.svg">
  <defs
     id="defs269" />
  <g
     id="g264"
     transform="matrix(0.06056477,0,0,0.0625,-5.5046108,3.9009974e-7)">
    <g
       id="g218">
      <path
         d="M 285.376,0.062 263.713,1.728 C 230.245,4.302 204.402,32.21 204.402,65.776 v 19.101 h 38.958 c 35.477,0 64.238,-28.76 64.238,-64.238 0,-12.021 -10.235,-21.499 -22.222,-20.577 z"
         fill="#fffddb"
         id="path216" />
    </g>
    <g
       id="g222">
      <path
         d="m 304.432,56.544 -103.195,7.938 c -21.506,1.654 -38.112,19.587 -38.112,41.157 v 37.187 H 348.876 V 97.701 c 0,-24.045 -20.47,-43.001 -44.444,-41.157 z"
         fill="#fff3ac"
         id="path220" />
    </g>
    <g
       id="g226">
      <path
         d="m 283.006,58.192 -81.769,6.29 c -21.506,1.654 -38.112,19.587 -38.112,41.157 v 37.187 h 82.556 V 99.269 C 245.68,77.965 261.885,60.22 283.006,58.192 Z"
         fill="#f9e99b"
         id="path224" />
    </g>
    <g
       id="g230">
      <path
         d="m 121.846,204.743 v -34.012 c 0,-21.569 16.606,-39.502 38.112,-41.157 L 345.71,115.285 c 23.974,-1.844 44.444,17.112 44.444,41.157 v 48.3 H 121.846 Z"
         fill="#fffddb"
         id="path228" />
    </g>
    <g
       id="g234">
      <path
         d="m 239.829,123.431 -79.871,6.144 c -21.506,1.654 -38.112,19.587 -38.112,41.157 v 34.012 h 82.556 v -40.461 c 0,-20.662 15.242,-37.976 35.427,-40.852 z"
         fill="#fff3ac"
         id="path232" />
    </g>
    <g
       id="g238">
      <path
         d="m 256,512 c -24.001,0 -44.666,-16.941 -49.373,-40.476 L 173.444,305.61 H 338.556 L 305.373,471.524 C 300.666,495.059 280.001,512 256,512 Z"
         fill="#ffd3a3"
         id="path236" />
    </g>
    <g
       id="g242">
      <path
         d="m 254.398,400.794 c 0.534,0.005 1.067,0.02 1.602,0.02 23.572,0 45.996,-4.984 66.3,-13.924 l 16.256,-81.281 H 173.444 l 33.183,165.914 C 211.334,495.059 231.999,512 256,512 c 6.998,0 13.707,-1.449 19.824,-4.073 z"
         fill="#ffbe74"
         id="path240" />
    </g>
    <g
       id="g246">
      <path
         d="m 390.154,235.702 c 0,74.091 -60.063,134.154 -134.154,134.154 -74.091,0 -134.154,-60.063 -134.154,-134.154 v -30.959 h 268.308 z"
         fill="#ffbe74"
         id="path244" />
    </g>
    <g
       id="g250">
      <path
         d="M 270.26,235.702 V 204.743 H 121.846 v 30.959 c 0,74.091 60.063,134.154 134.154,134.154 27.441,0 52.953,-8.246 74.207,-22.385 C 294.076,323.434 270.26,282.352 270.26,235.702 Z"
         fill="#f4a960"
         id="path248" />
    </g>
    <g
       id="g254">
      <path
         d="m 90.888,204.743 c 0,-11.399 9.24,-20.639 20.639,-20.639 h 288.947 c 11.399,0 20.639,9.24 20.639,20.639 0,11.399 -9.24,20.639 -20.639,20.639 H 111.527 c -11.399,0 -20.639,-9.24 -20.639,-20.639 z"
         fill="#ffd3a3"
         id="path252" />
    </g>
    <g
       id="g258">
      <path
         d="M 204.402,173.785 V 287.3 c 0,11.399 9.24,20.639 20.639,20.639 11.399,0 20.639,-9.24 20.639,-20.639 v -41.278 c 0,-11.399 9.24,-20.639 20.639,-20.639 11.399,0 20.639,9.24 20.639,20.639 0,11.399 9.24,20.639 20.639,20.639 11.399,0 20.639,-9.24 20.639,-20.639 v -72.237 z"
         fill="#fffddb"
         id="path256" />
    </g>
    <g
       id="g262">
      <path
         d="m 170.828,204.743 c 0,-11.399 9.24,-20.639 20.639,-20.639 h -79.94 c -11.399,0 -20.639,9.24 -20.639,20.639 0,11.399 9.24,20.639 20.639,20.639 h 79.94 c -11.399,0 -20.639,-9.24 -20.639,-20.639 z"
         fill="#ffbe74"
         id="path260" />
    </g>
  </g>
</svg>
