<?xml version="1.0" encoding="UTF-8" standalone="no"?>
<svg
   xmlns:dc="http://purl.org/dc/elements/1.1/"
   xmlns:cc="http://creativecommons.org/ns#"
   xmlns:rdf="http://www.w3.org/1999/02/22-rdf-syntax-ns#"
   xmlns:svg="http://www.w3.org/2000/svg"
   xmlns="http://www.w3.org/2000/svg"
   xmlns:sodipodi="http://sodipodi.sourceforge.net/DTD/sodipodi-0.dtd"
   xmlns:inkscape="http://www.inkscape.org/namespaces/inkscape"
   width="20"
   height="32"
   version="1.1"
   id="svg37"
   inkscape:version="1.0.1 (c497b03c, 2020-09-10)"
   sodipodi:docname="colIcon5.svg">
  <defs
     id="defs562" />
  <g
     id="g557"
     transform="matrix(0.04853497,0,0,0.0625,-2.4249527,0)">
    <g
       id="g485">
      <path
         d="m 76.395,163.383 c -1.748,0 -3.503,-0.607 -4.925,-1.846 -11.748,-10.238 -18.485,-25.03 -18.485,-40.583 0,-15.554 6.738,-30.346 18.485,-40.583 3.123,-2.721 7.86,-2.396 10.582,0.727 2.721,3.123 2.396,7.86 -0.727,10.582 -8.478,7.388 -13.34,18.059 -13.34,29.275 0,11.216 4.862,21.887 13.34,29.276 3.123,2.721 3.448,7.459 0.726,10.582 -1.482,1.699 -3.564,2.57 -5.656,2.57 z"
         fill="#0accab"
         id="path483" />
    </g>
    <g
       id="g489">
      <path
         d="m 256,325.793 h -73.415 l 52.811,165.603 h 41.208 l 52.811,-165.603 z"
         fill="#f9e99b"
         id="path487" />
    </g>
    <g
       id="g493">
      <circle
         cx="256"
         cy="162.897"
         fill="#ffccd3"
         r="162.897"
         id="circle491" />
    </g>
    <g
       id="g497">
      <path
         d="m 400.734,181.059 c -89.965,0 -162.897,-72.931 -162.897,-162.897 0,-5.828 0.312,-11.583 0.909,-17.253 C 156.893,9.527 93.103,78.76 93.103,162.897 c 0,89.965 72.931,162.897 162.897,162.897 84.137,0 153.369,-63.79 161.987,-145.643 -5.67,0.596 -11.425,0.908 -17.253,0.908 z"
         fill="#ffabb9"
         id="path495" />
    </g>
    <g
       id="g501">
      <circle
         cx="114.557"
         cy="181.242"
         fill="#ff7591"
         r="61.811001"
         id="circle499" />
    </g>
    <g
       id="g505">
      <path
         d="m 157.953,199.658 c -34.137,0 -61.811,-27.674 -61.811,-61.811 0,-5.623 0.765,-11.066 2.172,-16.244 -26.254,7.135 -45.567,31.125 -45.567,59.639 0,34.137 27.674,61.811 61.811,61.811 28.514,0 52.504,-19.313 59.639,-45.567 -5.179,1.407 -10.621,2.172 -16.244,2.172 z"
         fill="#fd5c70"
         id="path503" />
    </g>
    <g
       id="g509">
      <path
         d="m 79.567,244.261 c 0,79.653 78.992,144.225 176.433,144.225 97.441,0 176.433,-64.572 176.433,-144.225 z"
         fill="#fff3ac"
         id="path507" />
    </g>
    <g
       id="g515">
      <g
         id="g513">
        <path
           d="M 160.516,244.261 H 79.567 c 0,79.653 78.992,144.225 176.433,144.225 7.747,0 15.376,-0.412 22.86,-1.203 -66.766,-9.162 -118.344,-69.701 -118.344,-143.022 z"
           fill="#f9e99b"
           id="path511" />
      </g>
    </g>
    <g
       id="g519">
      <circle
         cx="307.255"
         cy="73.997002"
         fill="#ffabb9"
         r="20.604"
         id="circle517" />
    </g>
    <g
       id="g523">
      <circle
         cx="181.916"
         cy="91.510002"
         fill="#ffccd3"
         r="20.604"
         id="circle521" />
    </g>
    <g
       id="g527">
      <circle
         cx="214.28999"
         cy="150.78799"
         fill="#ffccd3"
         r="15.453"
         id="circle525" />
    </g>
    <g
       id="g531">
      <path
         d="m 355.416,233.96 41.719,-128.366 h 44.298 c 11.379,0 20.604,-9.225 20.604,-20.604 0,-11.379 -9.225,-20.604 -20.604,-20.604 h -52.478 c -17.851,0 -33.672,11.494 -39.189,28.471 L 303.907,233.96 Z"
         fill="#899bb0"
         id="path529" />
    </g>
    <g
       id="g535">
      <path
         d="m 343.687,194.578 c -13.043,-3.554 -20.742,-16.995 -17.219,-30.04 l -22.562,69.421 h 51.509 l 17.956,-55.249 c -4.087,12.243 -17.076,19.304 -29.684,15.868 z"
         fill="#6c8199"
         id="path533" />
    </g>
    <g
       id="g539">
      <path
         d="m 49.964,244.261 c 0,-11.379 9.225,-20.604 20.604,-20.604 h 370.865 c 11.379,0 20.604,9.225 20.604,20.604 0,11.379 -9.225,20.604 -20.604,20.604 H 70.567 c -11.379,0 -20.603,-9.224 -20.603,-20.604 z"
         fill="#fffddb"
         id="path537" />
    </g>
    <g
       id="g543">
      <path
         d="m 163.284,491.396 c 0,-11.379 9.225,-20.604 20.604,-20.604 h 144.225 c 11.379,0 20.604,9.225 20.604,20.604 0,11.379 -9.225,20.604 -20.604,20.604 H 183.887 c -11.379,0 -20.603,-9.225 -20.603,-20.604 z"
         fill="#fffddb"
         id="path541" />
    </g>
    <g
       id="g547">
      <path
         d="m 262.868,491.396 c 0,-11.379 9.225,-20.604 20.604,-20.604 h -99.584 c -11.379,0 -20.604,9.225 -20.604,20.604 0,11.379 9.225,20.604 20.604,20.604 h 99.584 c -11.38,0 -20.604,-9.225 -20.604,-20.604 z"
         fill="#fff3ac"
         id="path545" />
    </g>
    <g
       id="g551">
      <path
         d="m 139.155,244.261 c 0,-11.379 9.225,-20.604 20.604,-20.604 H 70.567 c -11.379,0 -20.604,9.225 -20.604,20.604 0,11.379 9.225,20.604 20.604,20.604 h 89.191 c -11.379,0 -20.603,-9.225 -20.603,-20.604 z"
         fill="#fff3ac"
         id="path549" />
    </g>
    <g
       id="g555">
      <path
         d="m 183.633,213.356 v 113.32 c 0,11.379 9.225,20.604 20.604,20.604 11.379,0 20.604,-9.225 20.604,-20.604 v -41.207 c 0,-11.379 9.225,-20.604 20.604,-20.604 11.379,0 20.604,9.225 20.604,20.604 0,11.379 9.225,20.604 20.604,20.604 11.379,0 20.604,-9.225 20.604,-20.604 v -72.113 z"
         fill="#ffabb9"
         id="path553" />
    </g>
  </g>
</svg>
