<?xml version="1.0" encoding="UTF-8" standalone="no"?>
<svg
   xmlns:dc="http://purl.org/dc/elements/1.1/"
   xmlns:cc="http://creativecommons.org/ns#"
   xmlns:rdf="http://www.w3.org/1999/02/22-rdf-syntax-ns#"
   xmlns:svg="http://www.w3.org/2000/svg"
   xmlns="http://www.w3.org/2000/svg"
   xmlns:sodipodi="http://sodipodi.sourceforge.net/DTD/sodipodi-0.dtd"
   xmlns:inkscape="http://www.inkscape.org/namespaces/inkscape"
   width="20"
   height="32"
   version="1.1"
   id="svg37"
   inkscape:version="1.0.1 (c497b03c, 2020-09-10)"
   sodipodi:docname="colIcon2.svg">
  <defs
     id="defs322" />
  <g
     id="g317"
     transform="matrix(0.06066875,0,0,0.0625,-5.5312306,0)">
    <g
       id="g275">
      <circle
         cx="256"
         cy="133.224"
         fill="#ffccd3"
         r="133.224"
         id="circle273" />
    </g>
    <g
       id="g279">
      <path
         d="M 180.882,133.224 C 180.882,69.626 225.449,16.445 285.053,3.186 275.7,1.106 265.98,0 256,0 182.422,0 122.776,59.647 122.776,133.224 c 0,73.577 59.646,133.224 133.224,133.224 9.98,0 19.7,-1.106 29.053,-3.186 -59.604,-13.259 -104.171,-66.44 -104.171,-130.038 z"
         fill="#ffabb9"
         id="path277" />
    </g>
    <g
       id="g283">
      <path
         d="m 256,512 c -23.96,0 -44.59,-16.912 -49.289,-40.407 L 173.585,305.964 H 338.414 L 305.288,471.593 C 300.59,495.088 279.96,512 256,512 Z"
         fill="#ffd3a3"
         id="path281" />
    </g>
    <g
       id="g287">
      <path
         d="m 254.401,400.985 c 0.534,0.005 1.065,0.02 1.599,0.02 23.531,0 45.917,-4.975 66.186,-13.9 l 16.228,-81.141 H 173.586 l 33.126,165.629 C 211.41,495.088 232.04,512 256,512 c 6.986,0 13.683,-1.446 19.79,-4.066 z"
         fill="#ffbe74"
         id="path285" />
    </g>
    <g
       id="g291">
      <path
         d="M 389.924,236.176 C 389.924,310.14 329.964,370.1 256,370.1 182.036,370.1 122.076,310.14 122.076,236.176 v -30.905 h 267.847 v 30.905 z"
         fill="#ffbe74"
         id="path289" />
    </g>
    <g
       id="g295">
      <path
         d="M 270.236,236.176 V 205.27 h -148.16 v 30.906 c 0,73.964 59.96,133.924 133.924,133.924 27.394,0 52.862,-8.232 74.079,-22.347 -36.069,-23.996 -59.843,-65.007 -59.843,-111.577 z"
         fill="#f4a960"
         id="path293" />
    </g>
    <g
       id="g299">
      <path
         d="m 91.171,205.271 c 0,-11.379 9.225,-20.604 20.604,-20.604 h 288.451 c 11.379,0 20.604,9.225 20.604,20.604 0,11.379 -9.225,20.604 -20.604,20.604 H 111.775 C 100.396,225.874 91.171,216.65 91.171,205.271 Z"
         fill="#ffd3a3"
         id="path297" />
    </g>
    <g
       id="g303">
      <path
         d="m 204.491,174.365 v 113.32 c 0,11.379 9.225,20.604 20.604,20.604 11.379,0 20.604,-9.225 20.604,-20.604 v -41.207 c 0,-11.379 9.225,-20.604 20.604,-20.604 11.379,0 20.604,9.225 20.604,20.604 0,11.379 9.225,20.604 20.604,20.604 11.379,0 20.604,-9.225 20.604,-20.604 v -72.113 z"
         fill="#ffccd3"
         id="path301" />
    </g>
    <g
       id="g307">
      <path
         d="m 170.974,205.271 c 0,-11.379 9.225,-20.604 20.604,-20.604 h -79.803 c -11.379,0 -20.604,9.224 -20.604,20.603 0,11.379 9.225,20.604 20.604,20.604 h 79.803 c -11.379,0 -20.604,-9.224 -20.604,-20.603 z"
         fill="#ffbe74"
         id="path305" />
    </g>
    <g
       id="g311">
      <circle
         cx="309.47601"
         cy="100.331"
         fill="#ffabb9"
         r="20.604"
         id="circle309" />
    </g>
    <g
       id="g315">
      <circle
         cx="256"
         cy="135.91499"
         fill="#ffabb9"
         r="15.453"
         id="circle313" />
    </g>
  </g>
</svg>
