<?xml version="1.0" encoding="UTF-8" standalone="no"?>
<svg
   xmlns:dc="http://purl.org/dc/elements/1.1/"
   xmlns:cc="http://creativecommons.org/ns#"
   xmlns:rdf="http://www.w3.org/1999/02/22-rdf-syntax-ns#"
   xmlns:svg="http://www.w3.org/2000/svg"
   xmlns="http://www.w3.org/2000/svg"
   xmlns:sodipodi="http://sodipodi.sourceforge.net/DTD/sodipodi-0.dtd"
   xmlns:inkscape="http://www.inkscape.org/namespaces/inkscape"
   width="32"
   height="32"
   version="1.1"
   id="svg37"
   inkscape:version="1.0.1 (c497b03c, 2020-09-10)">
  <defs
     id="defs41" />
  <g
     id="g13"
     transform="scale(0.06194342,0.06106251)">
    <title
       id="title10">background</title>
    <rect
       fill="none"
       id="canvas_background"
       height="602"
       width="802"
       y="-1"
       x="-1" />
  </g>
  <g
     id="g35"
     transform="scale(0.06194342,0.06106251)">
    <title
       id="title15">Layer 1</title>
    <path
       id="svg_1"
       fill="#aa0000"
       d="m 497,61 c -45.71875,0 -88.96484,22.86719 -114.04297,61.15625 l 73.53516,135.92188 C 490.10938,239.60938 512,204.32031 512,166 V 61 Z m 0,0" />
    <path
       id="svg_2"
       fill="#c65b5b"
       d="M 15,61 H 0 v 135 c 0,33.66016 23.64453,63.39844 56.0625,72.32031 L 129.04297,122.15625 C 103.96484,83.86719 60.71875,61 15,61 Z m 0,0" />
    <path
       id="svg_3"
       fill="#e57e7e"
       d="M 256,0 C 159.40234,0 31,197.80078 31,346 31,511 177.39844,512 256,512 334.60156,512 481,511 481,346 481,197.80078 352.59766,0 256,0 Z m 0,0" />
    <path
       id="svg_4"
       fill="#c65b5b"
       d="M 481,346 C 481,511 334.60156,512 256,512 V 0 c 96.59766,0 225,197.80078 225,346 z m 0,0" />
    <path
       id="svg_5"
       fill="#c65b5b"
       d="M 322.59766,178.5 C 301.90234,189 278.80078,194.09766 256,194.09766 233.19922,194.09766 210.09766,189 189.40234,178.5 l 13.19532,-27 c 16.80468,8.39844 35.10156,12.59766 53.40234,12.59766 18.30078,0 36.59766,-4.19922 53.40234,-12.59766 z m 0,0" />
    <path
       id="svg_6"
       fill="#fff7f7"
       d="m 194.78516,419.75391 -13.00782,-39.00782 28.44532,-9.49218 13.00781,39.00781 z m 0,0" />
    <path
       id="svg_7"
       fill="#eddcdc"
       d="m 317.21484,419.75391 -28.44531,-9.49219 13.00781,-39.00781 28.44532,9.49218 z m 0,0" />
    <path
       id="svg_8"
       fill="#c65b5b"
       d="m 151,422 c -33.08984,0 -60,-26.91016 -60,-60 0,-33.08984 26.91016,-60 60,-60 v 30 c -16.53906,0 -30,13.46094 -30,30 0,16.53906 13.46094,30 30,30 z m 0,0" />
    <path
       id="svg_9"
       fill="#aa0000"
       d="m 361,421 v -30 c 16.53906,0 30,-13.46094 30,-30 0,-16.53906 -13.46094,-30 -30,-30 v -30 c 33.08984,0 60,26.91016 60,60 0,33.08984 -26.91016,60 -60,60 z m 0,0" />
    <path
       id="svg_10"
       fill="#aa0000"
       d="M 322.59766,179.5 C 301.90234,190 278.80078,195.09766 256,195.09766 v -30 c 18.30078,0 36.59766,-4.19922 53.40234,-12.59766 z m 0,0" />
    <path
       id="svg_11"
       fill="#635757"
       d="m 187.66406,203.51563 -3.82031,2.5625 C 167.11328,217.22656 157.12109,235.88672 157.12109,256 c 0,20.11328 9.99219,38.77344 26.72266,49.92188 l 11.33594,7.55859 39.15625,-85.00391 z m 0,0" />
    <path
       id="svg_12"
       fill="#3d3030"
       d="m 328.17188,206.07813 -3.83594,-2.5625 -46.67188,24.96093 22.51563,60.04297 16.64062,24.96094 11.33985,-7.55859 c 16.72656,-11.14844 26.71875,-29.8086 26.71875,-49.92188 0,-20.11328 -9.99219,-38.77344 -26.70703,-49.92187 z m 0,0" />
    <path
       id="svg_13"
       fill="#aa0000"
       d="m 336.09766,322.59766 -13.5,6.90234 C 301.90234,340 278.80078,345.09766 256,345.09766 233.19922,345.09766 210.09766,340 189.40234,329.5 l -13.5,-6.90234 L 220,234.39844 l 36,15 36,-15 z m 0,0" />
    <path
       id="svg_14"
       fill="#870202"
       d="m 336.09766,322.59766 -13.5,6.90234 C 301.90234,340 278.80078,345.09766 256,345.09766 v -95.69922 l 36,-15 z m 0,0" />
    <path
       id="svg_15"
       fill="#efe2dd"
       d="m 319.60156,406 32.9961,16.5 -13.19532,27 -33.30078,-16.80078 C 290.80078,425.19922 273.40234,421.30078 256,421.30078 v -30 c 21.89844,0 43.80078,5.09766 63.60156,14.69922 z m 0,0" />
    <path
       id="svg_16"
       fill="#c65b5b"
       d="M 354.40234,208.59766 256,274 157.59766,208.59766 174.40234,183.39844 256,238 337.59766,183.39844 Z m 0,0" />
    <path
       id="svg_17"
       fill="#aa0000"
       d="M 354.40234,208.59766 256,274 v -36 l 81.59766,-54.60156 z m 0,0" />
    <path
       id="svg_18"
       fill="#fff7f7"
       d="m 352.59766,422.5 -13.19532,27 -33.30078,-16.80078 c -15.30078,-7.5 -32.69922,-11.39844 -50.10156,-11.39844 -17.39844,0 -34.79688,3.89844 -50.09766,11.39844 L 172.60156,449.5 l -13.19922,-27 32.9961,-16.5 c 19.80078,-9.60156 41.70312,-14.69922 63.60156,-14.69922 21.89844,0 43.80078,5.09766 63.60156,14.69922 z m 0,0" />
  </g>
</svg>