<?xml version="1.0" encoding="UTF-8" standalone="no"?>
<svg
   xmlns:dc="http://purl.org/dc/elements/1.1/"
   xmlns:cc="http://creativecommons.org/ns#"
   xmlns:rdf="http://www.w3.org/1999/02/22-rdf-syntax-ns#"
   xmlns:svg="http://www.w3.org/2000/svg"
   xmlns="http://www.w3.org/2000/svg"
   xmlns:sodipodi="http://sodipodi.sourceforge.net/DTD/sodipodi-0.dtd"
   xmlns:inkscape="http://www.inkscape.org/namespaces/inkscape"
   width="32"
   height="32"
   version="1.1"
   id="svg37"
   inkscape:version="1.0.1 (c497b03c, 2020-09-10)"
   sodipodi:docname="icon.svg">
  <defs
     id="defs94" />
  <path
     d="m 31.06232,3.8124843 c -2.857423,0 -5.560281,1.4291808 -7.12746,3.8222319 L 28.530771,16.12968 C 30.63182,14.975374 32,12.769819 32,10.374831 V 3.812359 Z"
     fill="#00ab5e"
     id="path54"
     style="stroke-width:0.0624997" />
  <path
     d="M 0.93749468,3.8124843 H 0 v 8.4374627 c 0,2.10374 1.477804,3.962357 3.5038548,4.51998 L 8.0650779,7.6349672 C 6.4977121,5.2419144 3.7948534,3.8127336 0.93762003,3.8127336 Z"
     fill="#5bc980"
     id="path56"
     style="stroke-width:0.0624997" />
  <path
     d="M 15.999906,0 C 9.9625667,0 1.937488,12.362446 1.937488,21.624905 c 0,10.312455 9.149946,10.374955 14.062418,10.374955 4.912472,0 14.062419,-0.06249 14.062419,-10.374955 C 30.062325,12.362446 22.037371,0 15.999906,0 Z"
     fill="#7fe881"
     id="path58"
     style="stroke-width:0.0624997" />
  <path
     d="m 30.062325,21.624905 c 0,10.312455 -9.149947,10.374955 -14.062419,10.374955 V 0 c 6.037339,0 14.062419,12.362446 14.062419,21.624905 z"
     fill="#5bc980"
     id="path60"
     style="stroke-width:0.0624997" />
  <path
     d="m 20.162381,11.218703 c -1.293429,0.656246 -2.737296,0.974868 -4.162351,0.974868 -1.425053,0 -2.868857,-0.318603 -4.16235,-0.974868 l 0.824683,-1.6874945 c 1.050307,0.5248955 2.193862,0.7873715 3.337606,0.7873715 1.143742,0 2.287361,-0.262447 3.337607,-0.7873715 z"
     fill="#5bc980"
     id="path62"
     style="stroke-width:0.0624997" />
  <path
     d="m 12.174305,26.23426 -0.812998,-2.437988 1.777804,-0.593259 0.812993,2.437989 z"
     fill="#fff5f5"
     id="path64"
     style="stroke-width:0.0624997" />
  <path
     d="m 19.82551,26.23426 -1.777803,-0.593258 0.812994,-2.437989 1.777802,0.593259 z"
     fill="#efe2dd"
     id="path66"
     style="stroke-width:0.0624997" />
  <path
     d="m 9.4374449,26.312384 c -2.0681128,0 -3.7499781,-1.681867 -3.7499781,-3.749984 0,-2.068114 1.6818653,-3.749982 3.7499781,-3.749982 v 1.87499 c -1.0336815,0 -1.8749892,0.841311 -1.8749892,1.874992 0,1.033684 0.8413077,1.874994 1.8749892,1.874994 z"
     fill="#5bc980"
     id="path68"
     style="stroke-width:0.0624997" />
  <path
     d="m 22.562367,26.312384 v -1.87499 c 1.033682,0 1.874992,-0.84131 1.874992,-1.874994 0,-1.033681 -0.84131,-1.874992 -1.874992,-1.874992 v -1.87499 c 2.068114,0 3.749979,1.681868 3.749979,3.749982 0,2.068117 -1.681864,3.749984 -3.749979,3.749984 z"
     fill="#00ab5e"
     id="path70"
     style="stroke-width:0.0624997" />
  <path
     d="m 20.162381,11.218703 c -1.293429,0.656246 -2.737296,0.974868 -4.162351,0.974868 V 10.31858 c 1.143807,0 2.287363,-0.262447 3.337608,-0.7873715 z"
     fill="#00ab5e"
     id="path72"
     style="stroke-width:0.0624997" />
  <path
     d="M 11.728681,12.719944 11.489914,12.8801 c -1.045617,0.696748 -1.670178,1.863055 -1.670178,3.120111 0,1.257058 0.624508,2.423303 1.670178,3.120111 l 0.708496,0.472413 2.447234,-5.312728 z"
     fill="#575f64"
     id="path74"
     style="stroke-width:0.0624997" />
  <path
     d="m 20.510505,12.879945 -0.239741,-0.160157 -2.916982,1.560056 1.407241,3.752671 1.040055,1.560055 0.708747,-0.472412 c 1.04543,-0.696747 1.669928,-1.863055 1.669928,-3.12011 0,-1.257058 -0.624511,-2.423302 -1.669179,-3.120111 z"
     fill="#32393f"
     id="path76"
     style="stroke-width:0.0624997" />
  <path
     d="m 21.006127,20.162412 -0.843746,0.431393 c -1.293429,0.656247 -2.737296,0.97487 -4.162351,0.97487 -1.425053,0 -2.868857,-0.318603 -4.16235,-0.97487 l -0.843743,-0.431393 2.756108,-5.512413 2.249985,0.937496 2.249989,-0.937496 z"
     fill="#00ab5e"
     id="path78"
     style="stroke-width:0.0624997" />
  <path
     d="m 21.006127,20.162412 -0.843746,0.431393 c -1.293429,0.656247 -2.737296,0.97487 -4.162351,0.97487 v -5.981161 l 2.249989,-0.937497 z"
     fill="#028948"
     id="path80"
     style="stroke-width:0.0624997" />
  <path
     d="m 19.974882,25.374889 2.062238,1.031246 -0.824682,1.687492 -2.081301,-1.050058 C 18.17483,26.574822 17.087462,26.331197 15.999781,26.331197 v -1.874992 c 1.368619,0 2.737548,0.318605 3.975101,0.918684 z"
     fill="#efe2dd"
     id="path82"
     style="stroke-width:0.0624997" />
  <path
     d="m 22.149871,13.037443 -6.150091,4.087607 -6.1500882,-4.087607 1.0503062,-1.57493 5.099846,3.41261 5.099845,-3.41261 z"
     fill="#5bc980"
     id="path84"
     style="stroke-width:0.0624997" />
  <path
     d="M 22.149871,13.037443 15.99978,17.12505 v -2.249989 l 5.099846,-3.412611 z"
     fill="#00ab5e"
     id="path86"
     style="stroke-width:0.0624997" />
  <path
     d="m 22.037371,26.406135 -0.824683,1.687492 -2.081301,-1.050058 c -0.956306,-0.468747 -2.043675,-0.712372 -3.131357,-0.712372 -1.087368,0 -2.174798,0.243647 -3.131106,0.712372 l -2.0813,1.050058 -0.8249314,-1.687492 2.0622364,-1.031246 c 1.237556,-0.600099 2.606423,-0.918684 3.975101,-0.918684 1.36868,0 2.737548,0.318605 3.975103,0.918684 z"
     fill="#fff5f5"
     id="path88"
     style="stroke-width:0.0624997" />
</svg>

